<svg 
 xmlns="http://www.w3.org/2000/svg"
 xmlns:xlink="http://www.w3.org/1999/xlink"
 width="16px" height="16px" viewBox="0 0 16 16">
<path 
 d="M4.568,11.971 C4.675,11.855 4.675,11.676 4.568,11.560 C4.451,11.453 4.273,11.453 4.157,11.560 L1.872,13.845 C1.765,13.962 1.765,14.140 1.872,14.256 C1.934,14.310 2.006,14.336 2.077,14.336 C2.148,14.336 2.220,14.310 2.282,14.256 L4.568,11.971 ZM6.076,12.337 C6.076,12.176 5.951,12.051 5.790,12.051 C5.630,12.051 5.505,12.176 5.505,12.337 L5.505,15.193 C5.505,15.354 5.630,15.479 5.790,15.479 C5.951,15.479 6.076,15.354 6.076,15.193 L6.076,12.337 ZM4.077,10.337 C4.077,10.177 3.952,10.052 3.791,10.052 L0.934,10.052 C0.774,10.052 0.649,10.177 0.649,10.337 C0.649,10.498 0.774,10.623 0.934,10.623 L3.791,10.623 C3.952,10.623 4.077,10.498 4.077,10.337 ZM15.360,11.480 C15.360,10.793 15.092,10.150 14.610,9.659 L11.610,6.660 C11.459,6.508 11.289,6.392 11.111,6.285 L10.950,8.418 L13.396,10.873 C13.556,11.034 13.646,11.248 13.646,11.480 C13.646,11.703 13.556,11.917 13.396,12.078 L12.084,13.381 C11.762,13.703 11.191,13.694 10.870,13.372 L8.433,10.927 L6.299,11.087 C6.406,11.266 6.522,11.435 6.674,11.587 L9.656,14.577 C10.138,15.068 10.789,15.336 11.477,15.336 C12.164,15.336 12.807,15.077 13.289,14.595 L14.601,13.292 C15.092,12.810 15.360,12.167 15.360,11.480 ZM9.852,5.017 C9.745,4.839 9.629,4.669 9.477,4.517 L6.496,1.527 C6.014,1.036 5.362,0.768 4.675,0.768 C3.987,0.768 3.345,1.027 2.863,1.509 L1.550,2.812 C1.059,3.294 0.792,3.937 0.792,4.625 C0.792,5.312 1.059,5.955 1.541,6.446 L4.541,9.445 C4.692,9.597 4.862,9.713 5.041,9.820 L5.201,7.677 L2.755,5.232 C2.595,5.071 2.506,4.857 2.506,4.625 C2.506,4.401 2.595,4.187 2.755,4.026 L4.068,2.723 C4.228,2.571 4.443,2.482 4.675,2.482 C4.907,2.482 5.121,2.571 5.282,2.732 L7.719,5.178 L9.852,5.017 ZM15.502,5.767 C15.502,5.606 15.377,5.481 15.217,5.481 L12.360,5.481 C12.200,5.481 12.075,5.606 12.075,5.767 C12.075,5.928 12.200,6.053 12.360,6.053 L15.217,6.053 C15.377,6.053 15.502,5.928 15.502,5.767 ZM10.646,0.911 C10.646,0.750 10.521,0.626 10.361,0.626 C10.200,0.626 10.075,0.750 10.075,0.911 L10.075,3.768 C10.075,3.928 10.200,4.053 10.361,4.053 C10.521,4.053 10.646,3.928 10.646,3.768 L10.646,0.911 ZM14.279,2.259 C14.387,2.143 14.387,1.964 14.279,1.848 C14.163,1.741 13.985,1.741 13.869,1.848 L11.584,4.134 C11.477,4.250 11.477,4.428 11.584,4.544 C11.646,4.598 11.718,4.625 11.789,4.625 C11.860,4.625 11.932,4.598 11.994,4.544 L14.279,2.259 Z"/>
</svg>