<svg 
 xmlns="http://www.w3.org/2000/svg"
 xmlns:xlink="http://www.w3.org/1999/xlink"
 width="11px" height="11px" viewBox="0 0 11 11">
<path fill-rule="evenodd"  fill="rgb(254, 254, 254)"
 d="M2.338,3.898 L0.127,3.898 L0.127,10.536 L2.338,10.536 L2.338,3.898 ZM2.478,1.848 C2.472,1.198 2.003,0.702 1.246,0.702 C0.496,0.702 0.000,1.198 0.000,1.848 C0.000,2.484 0.476,2.993 1.219,2.993 L1.233,2.993 L1.233,2.993 C2.003,2.993 2.485,2.484 2.478,1.848 ZM10.289,6.731 C10.289,4.695 9.204,3.743 7.750,3.743 C6.558,3.743 6.035,4.407 5.747,4.862 L5.761,4.862 L5.761,3.898 L3.557,3.898 C3.557,3.898 3.584,4.521 3.557,10.536 L3.557,10.536 L5.761,10.536 L5.761,6.832 C5.761,6.631 5.781,6.436 5.834,6.289 C5.995,5.894 6.357,5.485 6.967,5.485 C7.764,5.485 8.085,6.095 8.085,6.986 L8.085,10.536 L10.289,10.536 L10.289,6.731 Z"/>
</svg>