<svg 
 xmlns="http://www.w3.org/2000/svg"
 xmlns:xlink="http://www.w3.org/1999/xlink"
 width="56px" height="52px" viewBox="0 0 56 52">
<path fill-rule="evenodd"  fill="rgb(93, 180, 66)"
 d="M55.091,11.917 C54.589,11.247 53.886,10.779 53.116,10.477 C53.149,11.080 53.149,11.750 52.948,12.386 L42.905,45.428 C42.537,46.633 41.097,47.336 39.858,47.336 L8.958,47.336 C7.117,47.336 4.807,46.935 4.138,44.993 C3.870,44.256 3.903,43.955 4.171,43.553 C4.472,43.152 5.008,43.051 5.443,43.051 L34.535,43.051 C38.787,43.051 39.657,41.913 41.231,36.757 L50.404,6.427 C50.873,4.853 50.672,3.280 49.801,2.074 C48.964,0.903 47.558,0.200 45.985,0.200 L20.508,0.200 C19.939,0.200 19.370,0.367 18.801,0.501 L18.834,0.401 C14.583,-0.805 14.315,3.782 12.909,5.857 C12.373,6.627 11.570,7.297 11.436,7.933 C11.335,8.536 11.670,9.105 11.603,9.674 C11.402,11.448 10.063,14.629 9.260,15.733 C8.757,16.403 8.021,16.738 7.787,17.508 C7.586,18.043 7.921,18.813 7.854,19.516 C7.686,21.090 6.514,24.069 5.611,25.609 C5.276,26.212 4.640,26.681 4.472,27.317 C4.305,27.886 4.640,28.622 4.472,29.258 C4.104,30.999 2.966,33.711 1.961,35.385 C1.426,36.289 0.723,36.858 0.589,37.661 C0.522,38.063 0.823,38.498 0.790,39.034 C0.756,39.837 0.622,40.507 0.555,41.177 C0.087,42.449 0.087,43.922 0.622,45.428 C1.861,48.910 5.510,51.622 8.925,51.622 L39.825,51.622 C42.704,51.622 45.650,49.412 46.487,46.566 L55.693,16.236 C56.162,14.696 55.928,13.122 55.091,11.917 ZM19.470,11.984 L20.173,9.841 C20.374,9.239 21.010,8.770 21.579,8.770 L41.934,8.770 C42.537,8.770 42.871,9.239 42.670,9.841 L41.967,11.984 C41.767,12.587 41.130,13.055 40.561,13.055 L20.207,13.055 C19.604,13.055 19.269,12.587 19.470,11.984 ZM16.692,20.554 L17.395,18.412 C17.596,17.809 18.232,17.340 18.801,17.340 L39.155,17.340 C39.758,17.340 40.093,17.809 39.892,18.412 L39.189,20.554 C38.988,21.157 38.352,21.626 37.783,21.626 L17.428,21.626 C16.826,21.626 16.491,21.157 16.692,20.554 Z"/>
</svg>