<svg 
 xmlns="http://www.w3.org/2000/svg"
 xmlns:xlink="http://www.w3.org/1999/xlink"
 width="64px" height="48px" viewBox="0 0 64 48">
<path fill-rule="evenodd"  fill="rgb(93, 180, 66)"
 d="M56.642,13.340 C56.642,16.889 53.763,19.768 50.214,19.768 L48.072,19.768 L48.072,6.913 L50.214,6.913 C53.763,6.913 56.642,9.792 56.642,13.340 ZM0.935,39.051 C0.935,43.772 4.785,47.622 9.505,47.622 L52.357,47.622 C57.077,47.622 60.927,43.772 60.927,39.051 L0.935,39.051 ZM63.070,13.340 C63.070,6.243 57.312,0.485 50.214,0.485 L11.648,0.485 C10.476,0.485 9.505,1.456 9.505,2.627 L9.505,27.267 C9.505,31.385 12.887,34.766 17.004,34.766 L40.573,34.766 C44.690,34.766 48.072,31.385 48.072,27.267 L48.072,26.196 L50.214,26.196 C57.312,26.196 63.070,20.438 63.070,13.340 Z"/>
</svg>