<svg 
 xmlns="http://www.w3.org/2000/svg"
 xmlns:xlink="http://www.w3.org/1999/xlink"
 width="61px" height="53px" viewBox="0 0 61 53">
<path fill-rule="evenodd"  fill="rgb(93, 180, 66)"
 d="M47.215,31.982 C47.215,31.379 46.746,30.911 46.143,30.911 L44.001,30.911 C43.398,30.911 42.929,31.379 42.929,31.982 L42.929,42.695 C42.929,45.641 40.519,48.051 37.573,48.051 L9.719,48.051 C6.773,48.051 4.363,45.641 4.363,42.695 L4.363,14.841 C4.363,11.895 6.773,9.485 9.719,9.485 L33.288,9.485 C33.890,9.485 34.359,9.016 34.359,8.414 L34.359,6.271 C34.359,5.668 33.890,5.200 33.288,5.200 L9.719,5.200 C4.396,5.200 0.078,9.518 0.078,14.841 L0.078,42.695 C0.078,48.018 4.396,52.336 9.719,52.336 L37.573,52.336 C42.896,52.336 47.215,48.018 47.215,42.695 L47.215,31.982 ZM60.070,3.057 C60.070,1.885 59.099,0.915 57.927,0.915 L40.787,0.915 C39.615,0.915 38.644,1.885 38.644,3.057 C38.644,3.626 38.879,4.162 39.280,4.564 L45.172,10.456 L23.345,32.283 C23.144,32.484 23.010,32.785 23.010,33.053 C23.010,33.321 23.144,33.622 23.345,33.823 L27.161,37.640 C27.362,37.841 27.663,37.974 27.931,37.974 C28.199,37.974 28.500,37.841 28.701,37.640 L50.529,15.812 L56.421,21.704 C56.823,22.106 57.358,22.340 57.927,22.340 C59.099,22.340 60.070,21.369 60.070,20.198 L60.070,3.057 Z"/>
</svg>