<svg 
 xmlns="http://www.w3.org/2000/svg"
 xmlns:xlink="http://www.w3.org/1999/xlink"
 width="8px" height="7px" viewBox="0 0 8 7">
<path fill-rule="evenodd"  fill="rgb(255, 0, 0)"
 d="M7.283,5.583 C7.283,5.444 7.227,5.304 7.127,5.203 L5.485,3.561 L7.127,1.920 C7.227,1.819 7.283,1.679 7.283,1.540 C7.283,1.400 7.227,1.261 7.127,1.160 L6.367,0.401 C6.267,0.300 6.127,0.244 5.987,0.244 C5.848,0.244 5.708,0.300 5.608,0.401 L3.966,2.042 L2.324,0.401 C2.223,0.300 2.084,0.244 1.944,0.244 C1.804,0.244 1.665,0.300 1.564,0.401 L0.805,1.160 C0.704,1.261 0.648,1.400 0.648,1.540 C0.648,1.679 0.704,1.819 0.805,1.920 L2.447,3.561 L0.805,5.203 C0.704,5.304 0.648,5.444 0.648,5.583 C0.648,5.723 0.704,5.862 0.805,5.963 L1.564,6.722 C1.665,6.823 1.804,6.879 1.944,6.879 C2.084,6.879 2.223,6.823 2.324,6.722 L3.966,5.080 L5.608,6.722 C5.708,6.823 5.848,6.879 5.987,6.879 C6.127,6.879 6.267,6.823 6.367,6.722 L7.127,5.963 C7.227,5.862 7.283,5.723 7.283,5.583 Z"/>
</svg>