<svg 
 xmlns="http://www.w3.org/2000/svg"
 xmlns:xlink="http://www.w3.org/1999/xlink"
 width="13px" height="11px" viewBox="0 0 13 11">
<path fill-rule="evenodd"  fill="rgb(254, 254, 254)"
 d="M12.061,9.768 C12.061,9.891 11.952,10.000 11.829,10.000 L1.160,10.000 C1.036,10.000 0.928,9.891 0.928,9.768 L0.928,4.202 C1.080,4.376 1.247,4.535 1.428,4.680 C2.464,5.477 3.508,6.289 4.515,7.130 C5.059,7.586 5.733,8.145 6.487,8.145 L6.494,8.145 L6.501,8.145 C7.255,8.145 7.929,7.586 8.473,7.130 C9.480,6.289 10.524,5.477 11.560,4.680 C11.742,4.535 11.908,4.376 12.061,4.202 L12.061,9.768 ZM12.061,2.150 C12.061,2.767 11.466,3.571 10.995,3.941 C10.024,4.702 9.053,5.470 8.089,6.238 C7.705,6.550 7.009,7.217 6.501,7.217 L6.494,7.217 L6.487,7.217 C5.980,7.217 5.284,6.550 4.900,6.238 C3.936,5.470 2.964,4.702 1.993,3.941 C1.341,3.426 0.928,2.709 0.928,1.882 C0.928,1.759 1.036,1.650 1.160,1.650 L11.829,1.650 C12.104,1.650 12.061,1.969 12.061,2.150 ZM12.988,1.882 C12.988,1.245 12.466,0.723 11.829,0.723 L1.160,0.723 C0.522,0.723 0.000,1.245 0.000,1.882 L0.000,9.768 C0.000,10.406 0.522,10.928 1.160,10.928 L11.829,10.928 C12.466,10.928 12.988,10.406 12.988,9.768 L12.988,1.882 Z"/>
</svg>