<svg 
 xmlns="http://www.w3.org/2000/svg"
 xmlns:xlink="http://www.w3.org/1999/xlink"
 width="54px" height="53px" viewBox="0 0 54 54">
<path fill-rule="evenodd"  fill="rgb(254, 255, 254)"
 d="M53.856,30.053 C53.856,28.882 52.886,27.911 51.714,27.911 L44.215,27.911 C44.215,23.626 44.215,20.278 44.215,18.068 L50.006,12.277 C50.843,11.440 50.843,10.100 50.006,9.264 C49.169,8.427 47.830,8.427 46.993,9.264 L41.202,15.055 L12.947,15.055 L7.155,9.264 C6.318,8.427 4.979,8.427 4.142,9.264 C3.305,10.100 3.305,11.440 4.142,12.277 L9.934,18.068 C9.934,20.278 9.934,23.626 9.934,27.911 L2.434,27.911 C1.263,27.911 0.292,28.882 0.292,30.053 C0.292,31.225 1.263,32.196 2.434,32.196 L9.934,32.196 C9.934,36.079 10.703,39.059 11.875,41.369 L5.113,48.968 C4.343,49.872 4.410,51.211 5.280,52.015 C5.715,52.383 6.217,52.550 6.720,52.550 C7.322,52.550 7.891,52.316 8.327,51.847 L14.453,44.917 C14.453,44.917 18.872,49.336 24.932,49.336 L24.932,19.340 L29.217,19.340 L29.217,49.336 C34.908,49.336 39.294,45.319 39.294,45.319 L45.922,51.914 C46.324,52.349 46.893,52.550 47.429,52.550 C47.964,52.550 48.533,52.349 48.935,51.914 C49.772,51.077 49.772,49.738 48.935,48.901 L41.972,41.904 C43.311,39.527 44.215,36.381 44.215,32.196 L51.714,32.196 C52.886,32.196 53.856,31.225 53.856,30.053 ZM37.787,10.770 C37.787,4.844 33.000,0.057 27.074,0.057 C21.149,0.057 16.361,4.844 16.361,10.770 L37.787,10.770 Z"/>
</svg>