<svg 
 xmlns="http://www.w3.org/2000/svg"
 xmlns:xlink="http://www.w3.org/1999/xlink"
 width="70px" height="58px" viewBox="0 0 70 58">
<path 
 d="M53.434,29.426 C53.434,28.667 53.122,27.952 52.586,27.417 L28.298,3.129 C27.762,2.593 27.048,2.280 26.289,2.280 C24.726,2.280 23.431,3.575 23.431,5.138 L23.431,17.996 L3.430,17.996 C1.867,17.996 0.572,19.291 0.572,20.854 L0.572,37.998 C0.572,39.561 1.867,40.855 3.430,40.855 L23.431,40.855 L23.431,53.714 C23.431,55.277 24.726,56.571 26.289,56.571 C27.048,56.571 27.762,56.259 28.298,55.723 L52.586,31.435 C53.122,30.899 53.434,30.185 53.434,29.426 ZM69.150,13.710 C69.150,6.611 63.391,0.852 56.292,0.852 L42.005,0.852 C39.996,0.852 40.576,3.888 40.576,5.138 C40.576,6.790 42.317,6.566 43.433,6.566 L56.292,6.566 C60.221,6.566 63.435,9.781 63.435,13.710 L63.435,45.142 C63.435,49.071 60.221,52.285 56.292,52.285 L42.005,52.285 C39.996,52.285 40.576,55.321 40.576,56.571 C40.576,57.330 41.246,58.000 42.005,58.000 L56.292,58.000 C63.391,58.000 69.150,52.241 69.150,45.142 L69.150,13.710 Z"/>
</svg>