<svg 
 xmlns="http://www.w3.org/2000/svg"
 xmlns:xlink="http://www.w3.org/1999/xlink"
 width="65px" height="60px" viewBox="0 0 65 60">
<path fill-rule="evenodd"  fill="rgb(93, 180, 66)"
 d="M30.432,29.911 C30.432,34.631 26.582,38.481 21.861,38.481 C17.141,38.481 13.291,34.631 13.291,29.911 C13.291,25.190 17.141,21.340 21.861,21.340 C26.582,21.340 30.432,25.190 30.432,29.911 ZM56.142,47.051 C56.142,49.395 54.234,51.336 51.857,51.336 C49.514,51.336 47.572,49.428 47.572,47.051 C47.572,44.708 49.514,42.766 51.857,42.766 C54.201,42.766 56.142,44.708 56.142,47.051 ZM56.142,12.770 C56.142,15.113 54.234,17.055 51.857,17.055 C49.514,17.055 47.572,15.147 47.572,12.770 C47.572,10.427 49.514,8.485 51.857,8.485 C54.201,8.485 56.142,10.427 56.142,12.770 ZM43.287,26.864 C43.287,26.395 42.952,25.960 42.484,25.860 L37.395,25.090 C37.094,24.152 36.692,23.249 36.257,22.345 C37.194,21.039 38.198,19.834 39.169,18.528 C39.303,18.327 39.404,18.126 39.404,17.892 C39.404,16.955 35.453,13.339 34.583,12.536 C34.382,12.368 34.148,12.268 33.880,12.268 C33.645,12.268 33.411,12.335 33.210,12.502 L29.260,15.482 C28.456,15.080 27.619,14.712 26.749,14.444 L25.979,9.322 C25.912,8.853 25.443,8.485 24.975,8.485 L18.748,8.485 C18.279,8.485 17.877,8.820 17.743,9.288 C17.308,10.929 17.141,12.770 16.973,14.444 C16.070,14.745 15.233,15.080 14.396,15.515 L10.546,12.502 C10.345,12.368 10.111,12.268 9.843,12.268 C8.872,12.268 5.122,16.319 4.453,17.223 C4.285,17.423 4.218,17.658 4.218,17.892 C4.218,18.126 4.319,18.361 4.453,18.562 C5.524,19.834 6.528,21.073 7.466,22.412 C7.031,23.249 6.662,24.086 6.395,24.956 L1.205,25.759 C0.770,25.826 0.435,26.329 0.435,26.764 L0.435,32.957 C0.435,33.426 0.770,33.861 1.239,33.928 L6.328,34.731 C6.629,35.669 7.031,36.573 7.499,37.477 C6.528,38.782 5.524,40.021 4.553,41.293 C4.419,41.494 4.319,41.695 4.319,41.929 C4.319,42.900 8.269,46.482 9.140,47.286 C9.341,47.453 9.575,47.553 9.843,47.553 C10.077,47.553 10.345,47.486 10.512,47.319 L14.463,44.340 C15.266,44.741 16.103,45.110 16.973,45.377 L17.743,50.499 C17.810,50.968 18.279,51.336 18.748,51.336 L24.975,51.336 C25.443,51.336 25.845,51.002 25.979,50.533 C26.414,48.893 26.582,47.051 26.749,45.344 C27.653,45.076 28.490,44.741 29.327,44.306 L33.177,47.319 C33.378,47.453 33.612,47.553 33.880,47.553 C34.851,47.553 38.600,43.469 39.270,42.565 C39.437,42.398 39.504,42.164 39.504,41.929 C39.504,41.661 39.404,41.460 39.270,41.260 C38.198,39.987 37.194,38.749 36.257,37.410 C36.692,36.573 37.060,35.736 37.328,34.865 L42.517,34.062 C42.952,33.995 43.287,33.493 43.287,33.058 L43.287,26.864 ZM64.713,44.708 C64.713,44.206 60.394,43.737 59.725,43.670 C59.457,43.067 59.122,42.465 58.720,41.929 C59.022,41.260 60.428,37.912 60.428,37.309 C60.428,37.242 60.394,37.142 60.294,37.075 C59.892,36.841 56.310,34.731 56.142,34.731 L55.942,34.798 C54.803,35.937 53.799,37.242 52.862,38.548 C52.527,38.514 52.192,38.481 51.857,38.481 C51.523,38.481 51.188,38.514 50.853,38.548 C50.518,38.046 48.007,34.731 47.572,34.731 C47.405,34.731 43.823,36.874 43.421,37.075 C43.321,37.142 43.287,37.242 43.287,37.309 C43.287,37.878 44.693,41.260 44.994,41.929 C44.593,42.465 44.258,43.067 43.990,43.670 C43.321,43.737 39.002,44.206 39.002,44.708 L39.002,49.395 C39.002,49.897 43.321,50.366 43.990,50.433 C44.258,51.069 44.593,51.638 44.994,52.173 C44.693,52.843 43.287,56.224 43.287,56.793 C43.287,56.860 43.321,56.961 43.421,57.028 C43.823,57.262 47.405,59.405 47.572,59.405 C48.007,59.405 50.518,56.057 50.853,55.555 C51.188,55.588 51.523,55.622 51.857,55.622 C52.192,55.622 52.527,55.588 52.862,55.555 C53.196,56.057 55.707,59.405 56.142,59.405 C56.310,59.405 59.892,57.262 60.294,57.028 C60.394,56.961 60.428,56.894 60.428,56.793 C60.428,56.191 59.022,52.843 58.720,52.173 C59.122,51.638 59.457,51.069 59.725,50.433 C60.394,50.366 64.713,49.897 64.713,49.395 L64.713,44.708 ZM64.713,10.427 C64.713,9.924 60.394,9.456 59.725,9.389 C59.457,8.786 59.122,8.184 58.720,7.648 C59.022,6.978 60.428,3.631 60.428,3.028 C60.428,2.961 60.394,2.861 60.294,2.794 C59.892,2.559 56.310,0.450 56.142,0.450 L55.942,0.517 C54.803,1.655 53.799,2.961 52.862,4.267 C52.527,4.233 52.192,4.200 51.857,4.200 C51.523,4.200 51.188,4.233 50.853,4.267 C50.518,3.765 48.007,0.450 47.572,0.450 C47.405,0.450 43.823,2.593 43.421,2.794 C43.321,2.861 43.287,2.961 43.287,3.028 C43.287,3.597 44.693,6.978 44.994,7.648 C44.593,8.184 44.258,8.786 43.990,9.389 C43.321,9.456 39.002,9.924 39.002,10.427 L39.002,15.113 C39.002,15.616 43.321,16.084 43.990,16.151 C44.258,16.787 44.593,17.356 44.994,17.892 C44.693,18.562 43.287,21.943 43.287,22.512 C43.287,22.579 43.321,22.679 43.421,22.746 C43.823,22.981 47.405,25.123 47.572,25.123 C48.007,25.123 50.518,21.776 50.853,21.273 C51.188,21.307 51.523,21.340 51.857,21.340 C52.192,21.340 52.527,21.307 52.862,21.273 C53.196,21.776 55.707,25.123 56.142,25.123 C56.310,25.123 59.892,22.981 60.294,22.746 C60.394,22.679 60.428,22.613 60.428,22.512 C60.428,21.909 59.022,18.562 58.720,17.892 C59.122,17.356 59.457,16.787 59.725,16.151 C60.394,16.084 64.713,15.616 64.713,15.113 L64.713,10.427 Z"/>
</svg>