<svg 
 xmlns="http://www.w3.org/2000/svg"
 xmlns:xlink="http://www.w3.org/1999/xlink"
 width="11px" height="9px" viewBox="0 0 11 9">
<path fill-rule="evenodd"  fill="rgb(254, 254, 254)"
 d="M10.852,1.444 C10.463,1.611 10.041,1.732 9.606,1.779 C10.055,1.511 10.396,1.089 10.557,0.587 C10.142,0.834 9.673,1.015 9.184,1.109 C8.789,0.687 8.226,0.426 7.603,0.426 C6.404,0.426 5.439,1.397 5.439,2.589 C5.439,2.757 5.459,2.924 5.493,3.085 C3.698,2.991 2.097,2.134 1.032,0.821 C0.844,1.143 0.737,1.511 0.737,1.913 C0.737,2.663 1.119,3.326 1.701,3.715 C1.346,3.701 1.011,3.601 0.723,3.440 C0.723,3.447 0.723,3.460 0.723,3.467 C0.723,4.519 1.467,5.389 2.458,5.590 C2.278,5.637 2.083,5.664 1.889,5.664 C1.748,5.664 1.614,5.651 1.480,5.631 C1.755,6.488 2.552,7.111 3.503,7.131 C2.760,7.714 1.829,8.055 0.817,8.055 C0.636,8.055 0.469,8.049 0.295,8.029 C1.253,8.645 2.391,9.000 3.617,9.000 C7.596,9.000 9.773,5.704 9.773,2.844 C9.773,2.750 9.773,2.656 9.767,2.563 C10.189,2.255 10.557,1.873 10.852,1.444 Z"/>
</svg>