<svg 
 xmlns="http://www.w3.org/2000/svg"
 xmlns:xlink="http://www.w3.org/1999/xlink"
 width="11px" height="11px" viewBox="0 0 11 11">
<path fill-rule="evenodd"  fill="rgb(254, 254, 254)"
 d="M10.205,8.855 C10.205,8.804 10.205,8.753 10.183,8.702 C10.133,8.550 9.777,8.391 9.632,8.318 C9.219,8.086 8.799,7.862 8.393,7.622 C8.205,7.507 7.973,7.289 7.748,7.289 C7.306,7.289 6.661,8.601 6.269,8.601 C6.074,8.601 5.820,8.420 5.646,8.318 C4.327,7.586 3.414,6.673 2.682,5.354 C2.580,5.180 2.399,4.926 2.399,4.731 C2.399,4.339 3.711,3.694 3.711,3.252 C3.711,3.027 3.493,2.795 3.378,2.607 C3.138,2.201 2.914,1.781 2.682,1.368 C2.609,1.223 2.450,0.867 2.298,0.817 C2.247,0.795 2.196,0.795 2.145,0.795 C1.884,0.795 1.377,0.911 1.138,1.020 C0.783,1.172 0.551,1.578 0.370,1.904 C0.138,2.331 0.000,2.766 0.000,3.252 C0.000,3.926 0.275,4.535 0.500,5.151 C0.660,5.593 0.855,6.021 1.102,6.419 C1.863,7.651 3.349,9.137 4.581,9.898 C4.979,10.145 5.407,10.340 5.849,10.500 C6.465,10.725 7.074,11.000 7.748,11.000 C8.234,11.000 8.669,10.862 9.096,10.630 C9.422,10.449 9.828,10.217 9.980,9.862 C10.089,9.623 10.205,9.116 10.205,8.855 Z"/>
</svg>