<svg 
 xmlns="http://www.w3.org/2000/svg"
 xmlns:xlink="http://www.w3.org/1999/xlink"
 width="16px" height="11px" viewBox="0 0 16 11">
<path fill-rule="evenodd"  fill="rgb(254, 254, 254)"
 d="M9.626,5.827 C9.626,5.505 9.592,5.257 9.546,5.010 L4.910,5.010 L4.910,5.010 L4.910,6.698 L7.697,6.698 C7.583,7.414 6.853,8.814 4.910,8.814 C3.235,8.814 1.869,7.428 1.869,5.713 C1.869,3.998 3.235,2.611 4.910,2.611 C5.868,2.611 6.504,3.020 6.866,3.368 L8.199,2.089 C7.342,1.285 6.236,0.803 4.910,0.803 C2.197,0.803 0.000,3.000 0.000,5.713 C0.000,8.426 2.197,10.623 4.910,10.623 C7.744,10.623 9.626,8.633 9.626,5.827 ZM15.434,5.010 L14.034,5.010 L14.034,3.610 L12.627,3.610 L12.627,5.010 L11.227,5.010 L11.227,6.416 L12.627,6.416 L12.627,7.816 L14.034,7.816 L14.034,6.416 L15.434,6.416 L15.434,5.010 Z"/>
</svg>