<svg 
 xmlns="http://www.w3.org/2000/svg"
 xmlns:xlink="http://www.w3.org/1999/xlink"
 width="64px" height="48px" viewBox="0 0 64 48">
<path fill-rule="evenodd"  fill="rgb(93, 180, 66)"
 d="M63.840,27.785 C63.840,26.279 62.132,25.911 60.927,25.911 L24.503,25.911 C21.557,25.911 17.607,27.718 15.665,29.995 L4.417,43.252 C3.881,43.855 3.379,44.658 3.379,45.462 C3.379,46.968 5.086,47.336 6.291,47.336 L42.715,47.336 C45.661,47.336 49.612,45.529 51.553,43.252 L62.802,29.995 C63.338,29.392 63.840,28.589 63.840,27.785 ZM52.357,16.269 C52.357,12.151 48.976,8.770 44.858,8.770 L26.646,8.770 L26.646,7.699 C26.646,3.581 23.265,0.200 19.147,0.200 L8.434,0.200 C4.316,0.200 0.935,3.581 0.935,7.699 L0.935,39.837 C0.935,40.105 0.968,40.407 0.968,40.674 L1.136,40.473 L12.418,27.216 C15.130,24.002 20.319,21.626 24.503,21.626 L52.357,21.626 L52.357,16.269 Z"/>
</svg>