<svg 
 xmlns="http://www.w3.org/2000/svg"
 xmlns:xlink="http://www.w3.org/1999/xlink"
 width="16px" height="14px" viewBox="0 0 16 14">
<path 
 d="M13.217,7.927 C13.217,7.811 13.146,7.713 13.039,7.668 C13.003,7.650 12.967,7.641 12.932,7.641 C12.860,7.641 12.789,7.668 12.726,7.731 L12.155,8.302 C12.101,8.356 12.075,8.427 12.075,8.498 L12.075,10.766 C12.075,11.551 11.432,12.194 10.646,12.194 L3.220,12.194 C2.434,12.194 1.791,11.551 1.791,10.766 L1.791,3.339 C1.791,2.553 2.434,1.911 3.220,1.911 L10.646,1.911 C10.780,1.911 10.914,1.929 11.048,1.964 C11.075,1.973 11.102,1.982 11.128,1.982 C11.200,1.982 11.280,1.946 11.334,1.893 L11.771,1.455 C11.843,1.384 11.869,1.295 11.851,1.197 C11.834,1.107 11.771,1.027 11.691,0.991 C11.361,0.839 11.003,0.768 10.646,0.768 L3.220,0.768 C1.800,0.768 0.649,1.920 0.649,3.339 L0.649,10.766 C0.649,12.185 1.800,13.336 3.220,13.336 L10.646,13.336 C12.066,13.336 13.217,12.185 13.217,10.766 L13.217,7.927 ZM15.279,3.562 C15.565,3.276 15.565,2.830 15.279,2.544 L14.297,1.563 C14.012,1.277 13.565,1.277 13.280,1.563 L7.504,7.338 L5.157,4.990 C4.871,4.705 4.425,4.705 4.139,4.990 L3.157,5.972 C2.872,6.258 2.872,6.704 3.157,6.990 L6.996,10.828 C7.281,11.114 7.727,11.114 8.013,10.828 L15.279,3.562 Z"/>
</svg>