<svg 
 xmlns="http://www.w3.org/2000/svg"
 xmlns:xlink="http://www.w3.org/1999/xlink"
 width="10px" height="10px" viewBox="0 0 10 10">
<path fill-rule="evenodd"  fill="rgb(93, 180, 66)"
 d="M7.847,4.299 C7.847,4.394 7.814,4.484 7.747,4.551 L4.714,7.583 C4.647,7.650 4.552,7.689 4.457,7.689 C4.368,7.689 4.273,7.650 4.206,7.583 L2.184,5.561 C2.117,5.494 2.084,5.405 2.084,5.310 C2.084,5.215 2.117,5.120 2.184,5.053 L2.693,4.551 C2.760,4.484 2.849,4.445 2.944,4.445 C3.039,4.445 3.128,4.484 3.195,4.551 L4.457,5.813 L6.736,3.540 C6.803,3.473 6.892,3.434 6.987,3.434 C7.082,3.434 7.172,3.473 7.239,3.540 L7.747,4.042 C7.814,4.109 7.847,4.204 7.847,4.299 ZM9.255,5.204 C9.255,2.836 7.334,0.915 4.966,0.915 C2.598,0.915 0.677,2.836 0.677,5.204 C0.677,7.572 2.598,9.493 4.966,9.493 C7.334,9.493 9.255,7.572 9.255,5.204 Z"/>
</svg>