<svg 
 xmlns="http://www.w3.org/2000/svg"
 xmlns:xlink="http://www.w3.org/1999/xlink"
 width="61px" height="61px" viewBox="0 0 61 61">
<path fill-rule="evenodd"  fill="rgb(93, 180, 66)"
 d="M59.133,1.283 C58.463,0.814 57.559,0.781 56.856,1.216 L1.149,33.355 C0.446,33.756 0.011,34.526 0.078,35.330 C0.145,36.167 0.647,36.870 1.417,37.171 L17.218,43.632 L17.218,58.764 C17.218,59.635 17.754,60.438 18.591,60.773 C18.825,60.873 19.093,60.907 19.361,60.907 C19.964,60.907 20.533,60.672 20.934,60.204 L30.911,49.256 L48.554,56.454 C48.821,56.555 49.089,56.622 49.357,56.622 C49.725,56.622 50.094,56.521 50.395,56.354 C50.964,56.019 51.366,55.483 51.466,54.847 L60.037,3.425 C60.170,2.588 59.836,1.785 59.133,1.283 ZM47.683,51.466 L31.212,44.737 L47.215,18.055 L18.323,39.447 L7.075,34.861 L55.082,7.175 L47.683,51.466 Z"/>
</svg>